<svg width="146" height="173" viewBox="0 0 146 173" fill="none" xmlns="http://www.w3.org/2000/svg">
<g clip-path="url(#clip0_40_3)">
<path d="M0.0117468 127.131C0.0117468 125.463 0.0117468 123.781 0.0117468 122.113C0.0117468 89.0024 -0.0146835 55.8784 0.0117468 22.7678C0.024962 7.42025 6.98937 0.173548 22.1208 0.146857C45.2209 0.0934742 68.3475 -0.29355 91.4344 0.493844C132.547 1.92183 156.043 44.8282 135.837 80.9149C126.97 96.7696 117.891 112.504 108.799 128.239C102.654 138.875 91.3155 142.305 81.8666 136.566C72.6292 130.961 70.4223 119.884 76.5013 109.194C84.2718 95.5151 92.1613 81.9025 99.9054 68.2231C108.548 52.9557 104.465 36.1135 90.1922 27.8124C76.6466 19.9385 60.4977 24.863 51.8417 39.8236C36.1949 66.8485 20.7332 93.9937 5.17889 121.085C3.92344 123.274 2.57549 125.423 1.28041 127.585C0.857519 127.425 0.434633 127.278 0.0117468 127.131Z" fill="#3F88C5"/>
<path d="M140.225 92.4319C150.943 111.743 145.406 140.236 127.948 156.945C117.284 167.168 104.491 172.666 89.7961 172.826C66.4581 173.066 43.1201 173.026 19.7821 172.853C4.00312 172.733 -4.91714 157.626 2.90625 143.759C21.8568 110.168 41.1114 76.7507 60.432 43.3732C66.0484 33.6842 77.0302 30.8549 86.1223 36.1398C95.0558 41.3313 97.9499 52.515 92.5052 62.284C84.6158 76.4171 76.3827 90.35 68.4139 104.43C59.7448 119.764 63.8151 136.82 77.9421 144.867C91.9238 152.834 108.218 147.803 116.874 132.763C123.508 121.232 130.036 109.648 136.644 98.1038C137.714 96.2488 138.93 94.4738 140.225 92.4319Z" fill="#3F88C5"/>
</g>
<defs>
<clipPath id="clip0_40_3">
<rect width="145.684" height="173" fill="white"/>
</clipPath>
</defs>
</svg>
